<?xml version="1.0"?>
<svg xmlns="http://www.w3.org/2000/svg" fill="#9CA3AF" viewBox="3 3 29 29">
    <path style="line-height:normal;text-indent:0;text-align:start;text-decoration-line:none;text-decoration-style:solid;text-decoration-color:#9CA3AF;text-transform:none;block-progression:tb;isolation:auto;mix-blend-mode:normal" d="M 17.953125 2.953125 L 17.757812 2.9882812 A 1.0001 1.0001 0 0 0 17.455078 3.0429688 L 9.3046875 4.4980469 A 1.0001 1.0001 0 0 0 9.2070312 4.5175781 L 8.90625 4.5703125 L 8.6933594 4.8261719 A 1.0001 1.0001 0 0 0 8.671875 4.8496094 L 3.3417969 11.228516 A 1.0001 1.0001 0 0 0 3.1347656 11.474609 L 3 11.636719 L 3 11.865234 A 1.0001 1.0001 0 0 0 3 12.117188 L 3 20.041016 A 1.0001 1.0001 0 0 0 3 20.425781 L 3 20.607422 L 3.1328125 20.763672 A 1.0001 1.0001 0 0 0 3.3300781 20.994141 L 8.546875 27.091797 A 1.0001 1.0001 0 0 0 8.8320312 27.423828 L 8.9160156 27.521484 L 9.0390625 27.542969 A 1.0001 1.0001 0 0 0 9.5 27.619141 L 17.507812 28.96875 A 1.0001 1.0001 0 0 0 17.728516 29.005859 L 17.962891 29.044922 L 18.142578 28.941406 A 1.0001 1.0001 0 0 0 18.412109 28.787109 A 1.0001 1.0001 0 0 0 18.417969 28.783203 L 25.513672 24.714844 A 1.0001 1.0001 0 0 0 25.693359 24.611328 L 25.917969 24.482422 L 26.013672 24.222656 A 1.0001 1.0001 0 0 0 26.076172 24.052734 L 28.845703 16.544922 A 1.0001 1.0001 0 0 0 29.003906 16.113281 L 29.066406 15.947266 L 25.916016 7.4394531 L 25.595703 7.2578125 L 18.408203 3.2089844 A 1.0001 1.0001 0 0 0 18.115234 3.0449219 L 17.953125 2.953125 z M 16.271484 5.2832031 L 14.626953 10.023438 L 11.333984 6.1679688 L 16.271484 5.2832031 z M 18.328125 5.4589844 L 22.759766 7.9570312 L 16.650391 10.296875 L 18.328125 5.4589844 z M 9.4492188 7.0390625 L 12.830078 11 L 6.1386719 11 L 9.4492188 7.0390625 z M 23.59375 9.78125 L 21.505859 17.091797 L 16.796875 12.382812 L 23.59375 9.78125 z M 25.228516 11.337891 L 26.767578 15.498047 L 23.585938 17.089844 L 25.228516 11.337891 z M 6.0429688 13 L 13.460938 13 L 10.763672 19.070312 L 6.0429688 13 z M 15.322266 13.736328 L 19.943359 18.357422 L 12.681641 19.677734 L 15.322266 13.736328 z M 5 14.914062 L 8.7617188 19.751953 L 5 19.341797 L 5 14.914062 z M 26.164062 18.035156 L 24.859375 21.574219 L 23.447266 19.394531 L 26.164062 18.035156 z M 20.269531 20.332031 L 17.484375 26.261719 L 13.021484 21.650391 L 20.269531 20.332031 z M 22.138672 21.054688 L 23.691406 23.453125 L 20.027344 25.556641 L 22.138672 21.054688 z M 6.4003906 21.505859 L 9.7207031 21.867188 L 8.9804688 24.519531 L 6.4003906 21.505859 z M 11.494141 22.949219 L 14.939453 26.507812 L 10.701172 25.794922 L 11.494141 22.949219 z"/>
</svg>
