<?xml version="1.0"?>
<svg xmlns="http://www.w3.org/2000/svg" fill="#9CA3AF" viewBox="0 0 16 16">
    <path style="line-height:normal;text-indent:0;text-align:start;text-decoration-line:none;text-decoration-style:solid;text-decoration-color:#000;text-transform:none;block-progression:tb;isolation:auto;mix-blend-mode:normal" d="M 1.5 1 A 0.50005 0.50005 0 0 0 1 1.5 L 1 13.5 A 0.50005 0.50005 0 0 0 1.5 14 L 13.5 14 A 0.50005 0.50005 0 0 0 14 13.5 L 14 1.5 A 0.50005 0.50005 0 0 0 13.5 1 L 1.5 1 z M 2 2 L 13 2 L 13 9 L 2 9 L 2 2 z M 2 10 L 13 10 L 13 13 L 2 13 L 2 10 z M 3 11 L 3 12 L 10 12 L 10 11 L 3 11 z M 11 11 L 11 12 L 12 12 L 12 11 L 11 11 z" font-weight="400" font-family="sans-serif" white-space="normal" overflow="visible"/>
</svg>
