<?xml version="1.0" encoding="UTF-8" standalone="no"?>
<!-- Created with Inkscape (http://www.inkscape.org/) -->

<svg
   width="6.8791666mm"
   height="7.0044432mm"
   viewBox="0 0 6.8791666 7.0044432"
   version="1.1"
   id="svg5"
   inkscape:version="1.1.1 (3bf5ae0d25, 2021-09-20)"
   sodipodi:docname="graph1.svg"
   xmlns:inkscape="http://www.inkscape.org/namespaces/inkscape"
   xmlns:sodipodi="http://sodipodi.sourceforge.net/DTD/sodipodi-0.dtd"
   xmlns="http://www.w3.org/2000/svg"
   xmlns:svg="http://www.w3.org/2000/svg">
  <sodipodi:namedview
     id="namedview7"
     pagecolor="#ffffff"
     bordercolor="#666666"
     borderopacity="1.0"
     inkscape:pageshadow="2"
     inkscape:pageopacity="0.0"
     inkscape:pagecheckerboard="0"
     inkscape:document-units="mm"
     showgrid="false"
     showguides="false"
     fit-margin-top="0"
     fit-margin-left="0"
     fit-margin-right="0"
     fit-margin-bottom="0"
     inkscape:zoom="30.558877"
     inkscape:cx="13.007677"
     inkscape:cy="13.236743"
     inkscape:window-width="1920"
     inkscape:window-height="1017"
     inkscape:window-x="1912"
     inkscape:window-y="-8"
     inkscape:window-maximized="1"
     inkscape:current-layer="layer1" />
  <defs
     id="defs2" />
  <g
     inkscape:label="Layer 1"
     inkscape:groupmode="layer"
     id="layer1"
     transform="translate(47.717694,-9.4164529)">
    <g
       id="g835"
       transform="matrix(0.23459969,0,0,0.23459969,-48.031823,9.1656658)"
       style="fill:#9ca3af;fill-opacity:1">
      <g
         id="icomoon-ignore"
         style="fill:#9ca3af;fill-opacity:1" />
      <path
         d="m 27.995,1.073 c -1.47,0 -2.666,1.195 -2.666,2.665 0,0.926 0.476,1.742 1.195,2.22 l -5.04,13.284 c -0.14,-0.023 -0.28,-0.043 -0.425,-0.043 -0.639,0 -1.218,0.235 -1.677,0.611 l -5.043,-4.166 c 0.199,-0.373 0.322,-0.792 0.322,-1.244 0,-1.47 -1.196,-2.666 -2.666,-2.666 -1.47,0 -2.666,1.196 -2.666,2.666 0,0.794 0.356,1.501 0.909,1.989 l -5.374,9.36 C 4.593,25.656 4.308,25.594 4.005,25.594 c -1.47,0 -2.666,1.195 -2.666,2.665 0,1.471 1.196,2.667 2.666,2.667 1.47,0 2.665,-1.196 2.665,-2.667 0,-0.784 -0.346,-1.482 -0.887,-1.97 l 5.38,-9.37 c 0.263,0.087 0.539,0.146 0.831,0.146 0.633,0 1.206,-0.231 1.664,-0.6 l 5.049,4.17 c -0.194,0.37 -0.314,0.783 -0.314,1.228 0,1.47 1.196,2.666 2.666,2.666 1.47,0 2.666,-1.196 2.666,-2.666 0,-0.946 -0.499,-1.773 -1.243,-2.247 L 27.514,6.353 c 0.157,0.029 0.317,0.048 0.482,0.048 1.47,0 2.666,-1.196 2.666,-2.667 0,-1.471 -1.196,-2.665 -2.666,-2.665 z M 4.005,29.861 c -0.882,0 -1.6,-0.718 -1.6,-1.601 0,-0.881 0.718,-1.598 1.6,-1.598 0.882,0 1.599,0.717 1.599,1.598 0,0.883 -0.717,1.601 -1.599,1.601 z M 11.995,16 c -0.882,0 -1.599,-0.717 -1.599,-1.599 0,-0.882 0.717,-1.599 1.599,-1.599 0.882,0 1.599,0.717 1.599,1.599 0,0.882 -0.717,1.599 -1.599,1.599 z m 9.064,7.464 c -0.882,0 -1.599,-0.717 -1.599,-1.599 0,-0.882 0.717,-1.599 1.599,-1.599 0.882,0 1.599,0.717 1.599,1.599 0,0.882 -0.717,1.599 -1.599,1.599 z M 27.995,5.338 c -0.882,0 -1.599,-0.718 -1.599,-1.6 0,-0.881 0.717,-1.598 1.599,-1.598 0.882,0 1.599,0.717 1.599,1.598 0,0.883 -0.717,1.6 -1.599,1.6 z"
         fill="#000000"
         id="path825"
         style="fill:#9ca3af;fill-opacity:1" />
    </g>
  </g>
</svg>
